<svg viewBox="0 0 64 64" xml:space="preserve" xmlns="http://www.w3.org/2000/svg"><path d="M55.239 3.555C48.549-1.911 38.691-.92 33.221 5.774L6.542 38.425c-5.468 6.69-4.477 16.552 2.216 22.019 6.694 5.469 16.552 4.478 22.021-2.216l26.678-32.654c5.468-6.692 4.477-16.55-2.218-22.019zm-23.343 45.54-2.92 3.574c-3.946 4.832-11.17 5.455-16.138 1.396a12 12 0 0 1-.87-.794c-.532-.655.34-.804.34-.804l.01-.02c3.082.411 11.245.868 18.823-4.207l.012.029s.415-.181.614 0c.2.183.339.568.129.826zm22.346-24.964-4.572 5.597c-.086.112-.16.23-.251.341l-5.705 6.984L24.96 22.259 35.765 9.037c4.169-5.103 11.686-5.859 16.787-1.691 5.103 4.169 5.858 11.684 1.69 16.785z" fill="#f1f5f9" class="fill-241f20"></path></svg>